v -0.019500 0.001781 -0.019500
v -0.019500 -0.000000 -0.019500
v -0.009750 0.004591 -0.009750
v -0.009027 0.005968 -0.009027
v -0.007902 0.007060 -0.007902
v -0.006484 0.007761 -0.006484
v -0.003340 0.007761 -0.003340
v 0.000000 0.000000 0.000000
v 0.000000 0.009051 0.000000
v -0.018467 0.001781 -0.018467
v -0.014182 0.002906 -0.014182
v -0.014636 0.002160 -0.014636
v -0.010457 0.003749 -0.010457
v -0.002438 0.009051 -0.002438
v -0.011328 0.003131 -0.011328
v -0.017860 0.002160 -0.017860
v -0.016248 0.002488 -0.016248
v -0.030469 -0.000000 -0.019500
v -0.030469 0.001781 -0.019500
v -0.031502 0.001781 -0.018467
v -0.032109 0.002160 -0.017860
v -0.033721 0.002488 -0.016248
v -0.035333 0.002160 -0.014636
v -0.035787 0.002906 -0.014182
v -0.038641 0.003131 -0.011328
v -0.039512 0.003749 -0.010457
v -0.040219 0.004591 -0.009750
v -0.040942 0.005968 -0.009027
v -0.042067 0.007060 -0.007902
v -0.043485 0.007761 -0.006484
v -0.046629 0.007761 -0.003340
v -0.047530 0.009051 -0.002438
v -0.049969 0.009051 0.000000
v -0.049969 0.000000 0.000000
v 0.000000 0.000000 -0.049969
v 0.000000 0.009051 -0.049969
v -0.002438 0.009051 -0.047530
v -0.003340 0.007761 -0.046629
v -0.006484 0.007761 -0.043485
v -0.007902 0.007060 -0.042067
v -0.009027 0.005968 -0.040941
v -0.009750 0.004591 -0.040219
v -0.010457 0.003749 -0.039512
v -0.011328 0.003131 -0.038641
v -0.014182 0.002906 -0.035787
v -0.014636 0.002160 -0.035333
v -0.016248 0.002488 -0.033721
v -0.017860 0.002160 -0.032108
v -0.018467 0.001781 -0.031502
v -0.019500 0.001781 -0.030469
v -0.019500 -0.000000 -0.030469
v -0.035787 0.000000 -0.014182
v -0.040926 0.000000 -0.009043
v -0.009043 0.000000 -0.040925
v -0.014182 0.000000 -0.035787
vt 0.824364 0.145859
vt 0.819365 0.155382
vt 0.608566 0.155382
vt 0.603566 0.145859
vt 0.832151 0.138302
vt 0.595780 0.138302
vt 0.841962 0.128490
vt 0.585968 0.128490
vt 0.863714 0.106738
vt 0.564216 0.106738
vt 0.763252 0.212705
vt 0.759054 0.215329
vt 0.668875 0.215329
vt 0.664677 0.212705
vt 0.774407 0.201550
vt 0.653523 0.201550
vt 0.642368 0.190396
vt 0.785562 0.190396
vt 0.851849 0.177930
vt 0.851848 0.398727
vt 0.842325 0.393727
vt 0.842326 0.182929
vt 0.859406 0.170143
vt 0.859406 0.406513
vt 0.869218 0.160332
vt 0.869217 0.416325
vt 0.890970 0.138579
vt 0.890970 0.438077
vt 0.775234 0.250384
vt 0.775234 0.326272
vt 0.762912 0.326272
vt 0.762912 0.250384
vt 0.899893 0.132344
vt 0.899893 0.444312
vt 0.812473 0.363063
vt 0.812473 0.213593
vt 0.836497 0.187818
vt 0.836496 0.388838
vt 0.832222 0.382812
vt 0.832222 0.193844
vt 0.785003 0.239040
vt 0.785003 0.337616
vt 0.782379 0.333417
vt 0.782379 0.243239
vt 0.796158 0.227886
vt 0.796157 0.348770
vt 0.807312 0.216732
vt 0.807312 0.359924
vt 0.916763 0.115474
vt 0.916763 0.461182
vt 0.979383 0.115474
vt 0.979383 0.461182
vt 0.541111 0.080945
vt 0.541111 0.018325
vt 0.886820 0.018325
vt 0.886820 0.080946
vt 0.557981 0.097815
vt 0.869950 0.097815
vt 0.814476 0.161211
vt 0.613455 0.161211
vt 0.619481 0.165485
vt 0.808449 0.165486
vt 0.788700 0.185235
vt 0.639230 0.185235
vt 0.751909 0.222474
vt 0.676020 0.222473
vt 0.676020 0.234795
vt 0.751909 0.234796
vt 0.662955 0.247360
vt 0.667791 0.250383
vt 0.676020 0.264576
vt 0.650105 0.244751
vt 0.633641 0.264576
vt 0.637257 0.247360
vt 0.633641 0.241415
vt 0.592687 0.264576
vt 0.610893 0.239625
vt 0.603951 0.234701
vt 0.598319 0.227987
vt 0.592560 0.217017
vt 0.583591 0.208312
vt 0.572289 0.202723
vt 0.547232 0.202722
vt 0.520617 0.264577
vt 0.540049 0.192444
vt 0.520617 0.192444
vt 0.676020 0.250383
vt 0.801595 0.462243
vt 0.729463 0.481675
vt 0.791317 0.455060
vt 0.729463 0.409606
vt 0.791317 0.430004
vt 0.785728 0.418702
vt 0.777022 0.409733
vt 0.766053 0.403974
vt 0.759338 0.398342
vt 0.754414 0.391400
vt 0.752625 0.368652
vt 0.729463 0.368652
vt 0.746679 0.365036
vt 0.749289 0.352188
vt 0.729463 0.326272
vt 0.746679 0.339339
vt 0.743657 0.334503
vt 0.743657 0.326272
vt 0.801595 0.481675
vn 0.000000 0.642146 -0.766582
vn 0.000000 0.511782 -0.859116
vn 0.000000 0.511782 -0.859116
vn 0.000000 0.642146 -0.766582
vn -0.000000 0.855441 -0.517901
vn -0.000000 0.855441 -0.517901
vn -0.000000 0.998103 -0.061574
vn -0.000000 0.998103 -0.061575
vn -0.000000 1.000000 -0.000000
vn -0.000000 1.000000 -0.000000
vn 0.000001 0.970554 -0.240884
vn 0.000002 0.847989 -0.530014
vn 0.000002 0.847989 -0.530014
vn 0.000001 0.970554 -0.240884
vn -0.000000 0.993588 0.113066
vn -0.000000 0.993587 0.113067
vn -0.000000 0.979994 0.199028
vn -0.000000 0.979994 0.199028
vn -0.766576 0.642154 0.000001
vn -0.766577 0.642153 0.000001
vn -0.859115 0.511782 0.000002
vn -0.859116 0.511782 0.000002
vn -0.517894 0.855445 0.000000
vn -0.517893 0.855445 0.000000
vn -0.061577 0.998102 -0.000000
vn -0.061576 0.998102 -0.000000
vn -0.000000 1.000000 -0.000000
vn -0.000000 1.000000 -0.000000
vn -1.000000 0.000000 0.000000
vn -1.000000 0.000000 0.000000
vn -1.000000 0.000000 0.000000
vn -1.000000 0.000000 0.000000
vn -0.819700 0.572793 -0.000000
vn -0.819700 0.572793 -0.000000
vn -0.819700 0.572793 -0.000000
vn -0.819700 0.572793 -0.000000
vn -0.719145 0.694860 0.000001
vn -0.719146 0.694859 0.000001
vn -0.367521 0.930015 0.000000
vn -0.367523 0.930014 0.000000
vn -0.078425 0.996920 0.000000
vn -0.078425 0.996920 0.000000
vn -0.240883 0.970554 0.000000
vn -0.240885 0.970554 0.000000
vn -0.529995 0.848001 0.000001
vn -0.529995 0.848001 0.000001
vn 0.113066 0.993588 -0.000000
vn 0.113066 0.993587 -0.000000
vn 0.199028 0.979994 -0.000000
vn 0.199028 0.979994 -0.000000
vn 1.000000 0.000000 0.000000
vn 1.000000 0.000000 0.000000
vn 1.000000 0.000000 0.000000
vn 1.000000 0.000000 0.000000
vn -0.000006 1.000000 -0.000006
vn -0.000006 1.000000 -0.000006
vn -0.000012 1.000000 0.000000
vn -0.000012 1.000000 0.000000
vn -0.854400 0.519615 0.000002
vn -0.854400 0.519616 0.000002
vn -0.854400 0.519616 0.000002
vn -0.854400 0.519615 0.000002
vn -0.000006 1.000000 -0.000000
vn -0.000006 1.000000 -0.000000
vn -0.000006 1.000000 -0.000000
vn -0.000006 1.000000 -0.000000
vn 0.000001 0.000000 1.000000
vn 0.000001 0.000000 1.000000
vn 0.000001 0.000000 1.000000
vn 0.000001 0.000000 1.000000
vn -0.000000 1.000000 -0.000006
vn -0.000000 1.000000 -0.000006
vn -0.000000 1.000000 -0.000006
vn -0.000000 1.000000 -0.000006
vn -0.000001 0.572818 -0.819683
vn -0.000001 0.572818 -0.819683
vn -0.000001 0.572818 -0.819683
vn -0.000001 0.572818 -0.819683
vn -0.000000 0.694864 -0.719141
vn -0.000000 0.694864 -0.719141
vn -0.000000 0.930019 -0.367513
vn -0.000000 0.930019 -0.367513
vn 0.000000 0.996920 -0.078424
vn 0.000000 0.996920 -0.078424
vn 0.000000 0.519565 -0.854431
vn 0.000000 0.519565 -0.854431
vn 0.000000 0.519565 -0.854431
vn 0.000000 0.519565 -0.854431
vn 0.000000 1.000000 -0.000012
vn 0.000000 1.000000 -0.000012
vn -0.000000 0.000000 -1.000000
vn -0.000000 0.000000 -1.000000
vn -0.000000 0.000000 -1.000000
vn -0.000000 0.000000 -1.000000
vn -0.707119 -0.000022 -0.707095
vn -0.707119 -0.000022 -0.707095
vn -0.707119 -0.000022 -0.707095
vn -0.707104 -0.000009 -0.707110
vn -0.707104 -0.000009 -0.707110
vn -0.707104 -0.000009 -0.707110
vn -0.707104 -0.000009 -0.707110
vn -0.707115 0.000015 -0.707099
vn -0.707115 0.000015 -0.707099
vn -0.707115 0.000015 -0.707099
vn -0.707081 0.000000 -0.707132
vn -0.707081 0.000000 -0.707132
vn -0.707081 0.000000 -0.707132
vn -0.707111 0.000006 -0.707103
vn -0.707111 0.000006 -0.707103
vn -0.707111 0.000006 -0.707103
vn -0.707111 0.000006 -0.707103
vn -0.707105 0.000005 -0.707109
vn -0.707105 0.000005 -0.707109
vn -0.707105 0.000005 -0.707109
vn -0.707105 0.000003 -0.707109
vn -0.707105 0.000003 -0.707109
vn -0.707105 0.000003 -0.707109
vn -0.707104 0.000004 -0.707110
vn -0.707104 0.000004 -0.707110
vn -0.707104 0.000004 -0.707110
vn -0.707104 0.000004 -0.707109
vn -0.707104 0.000004 -0.707109
vn -0.707104 0.000004 -0.707109
vn -0.707106 0.000003 -0.707108
vn -0.707106 0.000003 -0.707108
vn -0.707106 0.000003 -0.707108
vn -0.707111 0.000002 -0.707102
vn -0.707111 0.000002 -0.707103
vn -0.707111 0.000002 -0.707103
vn -0.707111 0.000002 -0.707102
vn -0.707106 0.000001 -0.707107
vn -0.707106 0.000001 -0.707107
vn -0.707106 0.000001 -0.707107
vn -0.707107 0.000000 -0.707107
vn -0.707107 0.000000 -0.707107
vn -0.707107 0.000000 -0.707107
vn -0.707087 0.000000 -0.707127
vn -0.707087 0.000000 -0.707127
vn -0.707087 0.000000 -0.707127
vn -0.707098 0.000000 -0.707116
vn -0.707098 0.000000 -0.707116
vn -0.707098 0.000000 -0.707116
vn -0.707123 -0.000013 -0.707090
vn -0.707123 -0.000013 -0.707090
vn -0.707123 -0.000013 -0.707090
vn -0.707102 0.000002 -0.707111
vn -0.707102 0.000002 -0.707111
vn -0.707102 0.000002 -0.707111
vn -0.707102 0.000002 -0.707111
vn -0.707101 -0.000002 -0.707113
vn -0.707101 -0.000002 -0.707113
vn -0.707101 -0.000002 -0.707113
vn -0.707098 -0.000003 -0.707116
vn -0.707098 -0.000003 -0.707116
vn -0.707098 -0.000003 -0.707116
vn -0.707087 -0.000003 -0.707127
vn -0.707087 -0.000003 -0.707127
vn -0.707087 -0.000003 -0.707127
vn -0.707102 -0.000007 -0.707111
vn -0.707102 -0.000007 -0.707111
vn -0.707102 -0.000007 -0.707111
vn -0.707122 -0.000024 -0.707092
vn -0.707122 -0.000024 -0.707092
vn -0.707121 -0.000024 -0.707092
vn -0.707102 0.000004 -0.707112
vn -0.707102 0.000004 -0.707112
vn -0.707102 0.000004 -0.707112
vn -0.707102 0.000004 -0.707112
vn -0.707086 0.000000 -0.707127
vn -0.707086 0.000000 -0.707127
vn -0.707086 0.000000 -0.707127
vn -0.707107 -0.000008 -0.707106
vn -0.707107 -0.000008 -0.707106
vn -0.707107 -0.000008 -0.707106
vn -0.707108 -0.000013 -0.707106
vn -0.707108 -0.000013 -0.707106
vn -0.707108 -0.000013 -0.707106
vn -0.707108 -0.000013 -0.707106
vn -0.707023 -0.000131 -0.707190
vn -0.707023 -0.000131 -0.707190
vn -0.707023 -0.000131 -0.707190
vn -0.707147 0.000000 -0.707067
vn -0.707147 0.000000 -0.707067
vn -0.707147 0.000000 -0.707067
s 1
f 4/1/1 3/2/2 27/3/3 28/4/4
f 5/5/5 4/1/1 28/4/4 29/6/6
f 6/7/7 5/5/5 29/6/6 30/8/8
f 6/7/7 30/8/8 31/10/9 7/9/10
s 2
f 16/11/11 10/12/12 20/13/13 21/14/14
f 16/11/11 21/14/14 22/16/15 17/15/16
f 17/15/16 22/16/15 23/17/17 12/18/18
s 3
f 4/19/19 41/20/20 42/21/21 3/22/22
f 5/23/23 40/24/24 41/20/20 4/19/19
f 6/25/25 39/26/26 40/24/24 5/23/23
f 39/26/26 6/25/25 7/27/27 38/28/28
s off
f 1/29/29 50/30/30 51/31/31 2/32/32
f 14/33/33 37/34/34 38/28/35 7/27/36
s 3
f 13/37/37 43/38/38 44/39/39 15/40/40
f 11/36/41 15/40/40 44/39/39 45/35/42
s 4
f 16/41/43 48/42/44 49/43/45 10/44/46
f 48/42/44 16/41/43 17/45/47 47/46/48
f 47/46/48 17/45/47 12/47/49 46/48/50
s off
f 9/49/51 8/51/52 35/52/53 36/50/54
s 3
f 13/37/37 3/22/22 42/21/21 43/38/38
s 5
f 1/29/55 10/44/56 49/43/57 50/30/58
s off
f 12/47/59 11/36/60 45/35/61 46/48/62
f 37/34/63 14/33/64 9/49/65 36/50/66
f 33/53/67 34/54/68 8/55/69 9/56/70
f 14/58/71 32/57/72 33/53/73 9/56/74
f 7/9/75 31/10/76 32/57/77 14/58/78
s 1
f 13/59/79 26/60/80 27/3/3 3/2/2
f 25/61/81 26/60/80 13/59/79 15/62/82
f 11/63/83 24/64/84 25/61/81 15/62/82
s off
f 23/17/85 24/64/86 11/63/87 12/18/88
s 5
f 1/65/55 19/66/89 20/13/90 10/12/56
s off
f 18/67/91 19/66/92 1/65/93 2/68/94
f 21/69/95 20/70/96 18/71/97
f 18/71/98 52/73/99 22/72/100 21/69/101
f 52/73/102 23/74/103 22/72/104
f 24/75/105 23/74/106 52/73/107
f 53/76/108 25/77/109 24/75/110 52/73/111
f 26/78/112 25/77/113 53/76/114
f 27/79/115 26/78/116 53/76/117
f 28/80/118 27/79/119 53/76/120
f 29/81/121 28/80/122 53/76/123
f 30/82/124 29/81/125 53/76/126
f 53/76/127 34/84/128 31/83/129 30/82/130
f 32/85/131 31/83/132 34/84/133
f 34/84/134 33/86/135 32/85/136
f 18/71/137 20/70/138 19/87/139
f 35/89/140 37/88/141 36/106/142
f 38/90/143 37/88/144 35/89/145
f 54/91/146 39/92/147 38/90/148 35/89/149
f 40/93/150 39/92/151 54/91/152
f 41/94/153 40/93/154 54/91/155
f 42/95/156 41/94/157 54/91/158
f 43/96/159 42/95/160 54/91/161
f 44/97/162 43/96/163 54/91/164
f 54/91/165 55/99/166 45/98/167 44/97/168
f 46/100/169 45/98/170 55/99/171
f 55/99/172 47/101/173 46/100/174
f 51/102/175 48/103/176 47/101/177 55/99/178
f 49/104/179 48/103/180 51/102/181
f 49/104/182 51/102/183 50/105/184
